<svg xmlns="http://www.w3.org/2000/svg" viewBox="0 0 96 96" role="img" aria-label="BestPlayBD logo"><defs><linearGradient id="g" x1="0" x2="1" y1="0" y2="1"><stop stop-color="#f6c945"/><stop offset="1" stop-color="#dca72e"/></linearGradient></defs><rect width="96" height="96" rx="24" fill="#071126"/><path d="M48 10l30 12v22c0 20-12 33-30 42-18-9-30-22-30-42V22l30-12z" fill="url(#g)"/><path d="M34 36h22c8 0 13 4 13 11 0 5-3 8-8 10l9 15H58l-7-13h-7v13H34V36zm10 9v6h11c3 0 5-1 5-3s-2-3-5-3H44z" fill="#071126"/><circle cx="29" cy="27" r="4" fill="#071126"/><circle cx="67" cy="27" r="4" fill="#071126"/></svg>
